<svg width="200" height="200" viewBox="0 0 200 200" fill="none" xmlns="http://www.w3.org/2000/svg">
<g filter="url(#filter0_ng_1018_5)">
<path d="M171.224 50.299C171.271 50.2995 171.318 50.3029 171.364 50.3087L171.503 50.3341L171.825 50.4113L172.095 50.4767L172.376 50.4396L172.709 50.3947L172.878 50.3849C172.934 50.3861 172.991 50.3924 173.047 50.4025L173.695 50.5197C173.775 50.534 173.854 50.5541 173.93 50.5812L174.241 50.6925L174.534 50.798L174.851 50.8253L175.182 50.8537C175.322 50.8659 175.456 50.9087 175.577 50.9777L175.869 51.1447L176.072 51.2609L176.317 51.2638L176.662 51.2677C176.833 51.2697 177.001 51.319 177.148 51.4171L177.427 51.6046L177.676 51.7706L177.957 51.8478L178.276 51.9347C178.393 51.9666 178.503 52.0177 178.602 52.0871H178.601L179.144 52.4679C179.149 52.4717 179.155 52.4745 179.159 52.4767L179.456 52.6144L179.754 52.7521C179.794 52.7704 179.834 52.7893 179.874 52.8078L180.176 52.9455L180.478 53.0841C180.549 53.117 180.619 53.1548 180.685 53.1984L180.961 53.381L181.236 53.5636C181.325 53.6222 181.401 53.6931 181.464 53.7726L181.523 53.8546L181.71 54.1466L181.821 54.3205L182.011 54.3956L182.331 54.5226C182.438 54.5648 182.538 54.6258 182.624 54.7062L182.706 54.7931L182.917 55.049L183.128 55.3039C183.157 55.3392 183.186 55.3752 183.215 55.4103L183.423 55.6632L183.631 55.9171C183.67 55.9641 183.706 56.0129 183.741 56.0626L183.931 56.3302L184.119 56.5988C184.124 56.6057 184.129 56.6119 184.135 56.6173L184.363 56.8488L184.593 57.0802C184.636 57.1235 184.676 57.1686 184.716 57.215L184.928 57.464L185.141 57.713C185.163 57.7395 185.186 57.7663 185.21 57.7921L185.436 58.0333L185.66 58.2755C185.732 58.3525 185.789 58.4391 185.832 58.5324L185.87 58.6281L185.978 58.9484L186.066 59.2101L186.243 59.4142V59.4152L186.46 59.6652C186.554 59.7737 186.62 59.9 186.658 60.0363L186.749 60.3595L186.826 60.6369L186.989 60.8664L187.181 61.1339C187.242 61.2189 187.291 61.3112 187.326 61.4093L187.44 61.7189V61.7199L187.552 62.0294C187.571 62.0825 187.589 62.1359 187.606 62.1896L187.7 62.5011L187.794 62.8117C187.806 62.8506 187.819 62.8898 187.831 62.9289L188.032 63.5519C188.042 63.582 188.052 63.612 188.064 63.6408L188.182 63.9425L188.299 64.2443C188.321 64.3006 188.342 64.3582 188.359 64.4162L188.455 64.7287L188.552 65.0412L188.585 65.1437L188.693 65.4513L188.803 65.7589C188.81 65.7787 188.818 65.7993 188.828 65.8205L188.972 66.1232H188.973L189.116 66.4269C189.158 66.5145 189.187 66.6073 189.202 66.7033L189.213 66.7999L189.233 67.131L189.25 67.4406L189.351 67.7316L189.459 68.0441C189.477 68.0965 189.491 68.1502 189.501 68.2042L189.52 68.3693L189.53 68.7013L189.541 69.0343C189.542 69.0749 189.545 69.115 189.547 69.1544L189.565 69.4806L189.58 69.7853L189.68 70.091L189.784 70.4103L189.813 70.5177C189.834 70.6265 189.837 70.7381 189.819 70.8488L189.768 71.1818L189.717 71.4992L189.746 71.8107L189.776 72.1369C189.783 72.2037 189.786 72.2709 189.785 72.338L189.782 72.6662L189.778 72.963L189.865 73.2599L189.96 73.5822C189.998 73.7133 190.009 73.8507 189.991 73.9874L189.947 74.3175L189.904 74.6378L189.939 74.9523L189.974 75.2775C189.986 75.394 189.979 75.5105 189.954 75.6232L189.882 75.9494L189.827 76.1925L189.889 76.4455L189.97 76.7775C190.013 76.9549 189.999 77.1379 189.933 77.3068L189.806 77.6261L189.687 77.9259L189.654 78.2316L189.621 78.5373L189.672 78.8507L189.726 79.1828C189.743 79.2896 189.745 79.3992 189.731 79.5089L189.687 79.8322L189.644 80.1564C189.638 80.1968 189.633 80.2375 189.628 80.2785L189.552 80.9328C189.545 80.9892 189.537 81.0459 189.527 81.1017L189.472 81.423L189.417 81.7433C189.413 81.7662 189.41 81.7899 189.408 81.8136L189.384 82.1408L189.359 82.4669C189.352 82.5472 189.34 82.6272 189.321 82.7052L189.244 83.0265L189.166 83.3478C189.151 83.4093 189.134 83.4704 189.114 83.5304L188.907 84.1535C188.905 84.1616 188.903 84.1699 188.901 84.1779L188.851 84.5011L188.8 84.8214L188.822 85.1544L188.845 85.4933C188.855 85.6493 188.825 85.8046 188.757 85.9484L188.613 86.2511L188.499 86.4914L188.489 86.758L188.478 87.091C188.476 87.1311 188.473 87.1712 188.468 87.2111L188.449 87.3302L188.385 87.6525L188.319 87.9748C188.309 88.026 188.298 88.0775 188.286 88.1281L188.211 88.4445L188.137 88.7619C188.131 88.7854 188.127 88.8101 188.123 88.8351L188.076 89.1613L188.029 89.4884C188.018 89.5681 188.001 89.6469 187.977 89.7238L187.878 90.0382L187.778 90.3527C187.754 90.4293 187.725 90.5038 187.689 90.5753L187.539 90.8722L187.422 91.1027L187.411 91.3683L187.397 91.7052C187.389 91.8692 187.338 92.0246 187.251 92.1603L187.067 92.4484L186.899 92.7072L186.824 92.9865L186.74 93.3009C186.731 93.3354 186.723 93.3709 186.715 93.4064L186.643 93.7277L186.57 94.048L186.552 94.1427L186.444 94.8009C186.424 94.9233 186.383 95.0405 186.32 95.1486L186.154 95.4357L185.989 95.7238C185.981 95.7384 185.974 95.7533 185.968 95.7677L185.843 96.0705L185.718 96.3722C185.71 96.3919 185.702 96.4127 185.695 96.4337L185.51 97.0665C185.487 97.1429 185.458 97.2172 185.424 97.2892L185.283 97.5841L185.143 97.8761L185.066 98.1964L184.987 98.5167C184.977 98.5615 184.965 98.6065 184.954 98.6515L184.794 99.296C184.763 99.421 184.709 99.5371 184.635 99.6408L184.441 99.9142L184.245 100.188C184.244 100.189 184.243 100.19 184.243 100.191L183.978 100.786C183.976 100.79 183.974 100.795 183.973 100.801L183.817 101.447C183.789 101.562 183.742 101.672 183.678 101.772L183.318 102.33C183.309 102.345 183.301 102.359 183.294 102.373L183.154 102.667L183.016 102.962C183.013 102.967 183.01 102.974 183.008 102.982L182.92 103.301L182.831 103.621C182.806 103.711 182.772 103.798 182.729 103.88L182.728 103.879L182.574 104.17L182.419 104.461C182.404 104.49 182.389 104.519 182.376 104.548L182.24 104.843L182.104 105.139C182.074 105.204 182.04 105.267 182.002 105.328L181.829 105.608L181.655 105.887C181.655 105.888 181.654 105.89 181.653 105.892L181.537 106.2L181.422 106.51C181.387 106.604 181.34 106.692 181.282 106.775L181.094 107.044L180.904 107.315C180.901 107.319 180.899 107.323 180.898 107.327L180.762 107.624L180.627 107.921C180.62 107.935 180.614 107.952 180.609 107.969L180.411 108.608C180.371 108.739 180.304 108.858 180.215 108.961L179.994 109.215L179.775 109.469L179.739 109.515L179.372 110.056C179.353 110.084 179.335 110.112 179.317 110.141L178.978 110.699C178.962 110.726 178.946 110.753 178.932 110.78L178.779 111.07L178.626 111.361C178.598 111.416 178.567 111.469 178.534 111.521L178.361 111.797L178.188 112.073C178.182 112.083 178.176 112.093 178.171 112.105L177.909 112.708L177.81 112.902L177.642 113.183L177.475 113.464C177.443 113.517 177.409 113.57 177.373 113.62L177.183 113.888L176.993 114.156C176.985 114.168 176.978 114.18 176.972 114.193L176.822 114.483L176.672 114.774C176.656 114.804 176.641 114.836 176.626 114.868L176.349 115.468C176.288 115.6 176.2 115.713 176.093 115.803L175.831 116.024L175.707 116.127L175.697 116.2C175.677 116.343 175.616 116.461 175.592 116.506L175.283 117.09C175.258 117.138 175.232 117.185 175.205 117.232L174.875 117.8C174.811 117.911 174.727 118.005 174.63 118.083L174.364 118.297L174.166 118.456L174.064 118.68L173.925 118.982C173.877 119.086 173.814 119.182 173.735 119.267L173.511 119.509L173.314 119.72L173.196 119.988L173.061 120.295C173.009 120.412 172.936 120.518 172.843 120.609L172.608 120.84L172.39 121.051L172.243 121.317L172.083 121.607C172.039 121.686 171.986 121.76 171.927 121.828L171.712 122.076L171.496 122.324C171.444 122.384 171.388 122.44 171.327 122.49L171.072 122.705L170.861 122.882L170.734 123.123L170.579 123.416C170.552 123.468 170.523 123.519 170.492 123.569L170.319 123.851L170.147 124.134C170.105 124.201 170.059 124.265 170.008 124.325L169.796 124.575L169.584 124.824C169.531 124.887 169.471 124.946 169.408 124.998L169.154 125.21L168.929 125.397L168.771 125.649L168.595 125.93C168.541 126.016 168.476 126.094 168.401 126.163L167.921 126.614C167.886 126.647 167.851 126.679 167.817 126.711L167.575 126.933L167.333 127.153C167.314 127.171 167.295 127.19 167.277 127.209L167.056 127.449L166.875 127.645L166.773 127.922L166.65 128.252C166.577 128.445 166.439 128.605 166.253 128.703L165.947 128.865L165.712 128.99L165.569 129.187L165.377 129.452C165.363 129.472 165.349 129.494 165.335 129.517L165.162 129.806L164.99 130.096C164.908 130.234 164.794 130.345 164.656 130.424L164.36 130.593L164.13 130.725L163.985 130.93L163.796 131.199C163.742 131.276 163.68 131.346 163.61 131.408L163.366 131.629L163.122 131.851C163.088 131.882 163.053 131.913 163.019 131.944L162.775 132.161L162.529 132.38C162.497 132.409 162.465 132.438 162.433 132.467L162.191 132.685L161.948 132.903C161.926 132.923 161.905 132.944 161.884 132.966L161.427 133.437C161.38 133.485 161.33 133.531 161.278 133.574L160.78 133.989L160.584 134.249L160.384 134.514C160.298 134.627 160.189 134.719 160.066 134.784L159.767 134.942L159.483 135.091L159.255 135.301H159.254L159.013 135.523V135.524L158.817 135.796L158.621 136.069C158.539 136.182 158.435 136.277 158.312 136.347L158.022 136.51L157.733 136.674L157.727 136.678L157.477 136.892L157.228 137.105C157.18 137.145 157.131 137.183 157.081 137.22L157.082 137.221L156.817 137.412L156.554 137.605C156.536 137.618 156.519 137.632 156.502 137.647L156.259 137.864L156.016 138.083C155.975 138.119 155.934 138.155 155.892 138.19L155.638 138.398L155.383 138.606L155.384 138.607C155.372 138.616 155.36 138.627 155.349 138.639L155.123 138.881L154.897 139.123C154.801 139.225 154.687 139.304 154.56 139.358L154.25 139.487L153.964 139.606L153.732 139.797L153.477 140.005C153.45 140.027 153.425 140.049 153.4 140.071L153.155 140.292L152.912 140.513C152.832 140.585 152.742 140.645 152.645 140.692L152.049 140.979C152.039 140.983 152.03 140.989 152.022 140.994L151.481 141.367C151.482 141.367 151.484 141.366 151.484 141.365L151.485 141.364L151.026 141.855C150.959 141.927 150.883 141.991 150.799 142.045L150.524 142.223L150.247 142.401C150.148 142.465 150.041 142.511 149.931 142.539L149.598 142.624L149.276 142.706L149.002 142.856L148.759 142.985L148.558 143.213L148.328 143.471C148.25 143.558 148.156 143.632 148.049 143.685L147.938 143.731L147.622 143.838L147.307 143.946C147.297 143.95 147.288 143.954 147.281 143.957L146.709 144.264C146.632 144.305 146.551 144.338 146.468 144.363L146.149 144.462L145.885 144.543L145.669 144.717L145.409 144.926C145.306 145.009 145.187 145.071 145.059 145.108L144.422 145.289C144.42 145.29 144.418 145.291 144.417 145.291L144.125 145.442L143.833 145.591L143.834 145.592C143.832 145.593 143.828 145.595 143.824 145.598L143.297 146.012C143.182 146.102 143.049 146.163 142.905 146.194L142.577 146.263L142.268 146.328L141.995 146.469L141.703 146.619C141.644 146.65 141.583 146.677 141.522 146.701L140.914 146.94C140.857 146.962 140.8 146.982 140.741 147L140.112 147.195C140.062 147.211 140.011 147.226 139.96 147.239L139.331 147.409C139.32 147.412 139.308 147.417 139.295 147.422L138.991 147.553L138.688 147.685C138.568 147.737 138.442 147.764 138.314 147.768L137.977 147.777L137.746 147.782L137.545 147.906L137.255 148.084C137.103 148.177 136.93 148.221 136.752 148.213L136.412 148.197L136.08 148.183L135.775 148.242L135.507 148.294L135.245 148.454L134.944 148.637C134.769 148.744 134.562 148.785 134.354 148.747L134.015 148.685L133.792 148.644L133.588 148.726L133.273 148.851C133.181 148.887 133.084 148.914 132.983 148.927L132.658 148.969L132.334 149.011C132.25 149.022 132.166 149.025 132.082 149.021L131.751 149.004L131.421 148.986C131.381 148.984 131.342 148.984 131.303 148.983L130.977 148.974L130.65 148.966C130.613 148.965 130.576 148.965 130.539 148.965L130.213 148.969L129.886 148.973C129.861 148.973 129.837 148.974 129.812 148.977L129.483 149.01L129.154 149.044C129.02 149.058 128.886 149.043 128.759 149.003L128.439 148.902L128.219 148.833L127.983 148.886L127.648 148.959C127.522 148.987 127.39 148.991 127.258 148.968L126.935 148.911L126.61 148.855C126.567 148.847 126.523 148.84 126.479 148.832L125.83 148.719C125.74 148.703 125.653 148.679 125.568 148.646L125.261 148.522L124.965 148.403L124.65 148.36L124.322 148.315C124.181 148.295 124.048 148.246 123.931 148.17L123.647 147.986L123.449 147.86L123.211 147.847L122.869 147.827C122.677 147.816 122.497 147.743 122.353 147.617L122.093 147.392L121.905 147.23L121.676 147.179L121.349 147.108C121.242 147.084 121.139 147.045 121.042 146.99L120.757 146.83L120.471 146.669C120.428 146.645 120.386 146.621 120.344 146.596L120.062 146.43L119.778 146.264C119.704 146.22 119.634 146.169 119.569 146.112L119.32 145.895L119.071 145.676C119.034 145.643 118.997 145.61 118.96 145.576L118.72 145.356L118.479 145.134C118.458 145.115 118.436 145.097 118.414 145.079L118.16 144.878L117.905 144.677C117.876 144.654 117.847 144.631 117.817 144.609L117.554 144.413L117.291 144.219C117.27 144.203 117.247 144.188 117.223 144.173L116.939 143.995L116.653 143.818C116.558 143.758 116.472 143.683 116.398 143.596L116.185 143.345L115.972 143.093C115.942 143.058 115.913 143.023 115.884 142.988L115.673 142.736L115.462 142.485C115.403 142.415 115.352 142.339 115.31 142.259L115.154 141.965L114.998 141.67C114.996 141.665 114.993 141.662 114.991 141.659L114.788 141.404L114.585 141.149C114.543 141.096 114.504 141.04 114.468 140.984L114.116 140.431C114.105 140.413 114.093 140.396 114.079 140.379L113.667 139.863C113.585 139.76 113.526 139.644 113.489 139.52L113.395 139.197L113.304 138.89L113.146 138.628L112.977 138.349C112.949 138.302 112.922 138.255 112.896 138.207L112.737 137.918L112.58 137.629C112.521 137.52 112.483 137.402 112.465 137.281L112.416 136.95L112.383 136.721L112.235 136.531L112.025 136.26C111.931 136.137 111.866 135.992 111.842 135.833L111.793 135.504L111.748 135.208L111.617 134.942L111.472 134.644C111.413 134.524 111.38 134.394 111.372 134.262L111.353 133.928L111.338 133.678L111.213 133.456L111.045 133.161C110.985 133.055 110.943 132.938 110.923 132.814L110.871 132.487L110.818 132.16C110.808 132.096 110.801 132.032 110.797 131.967L110.775 131.64L110.753 131.313C110.749 131.254 110.747 131.195 110.746 131.137L110.744 130.805L110.742 130.543L110.632 130.301L110.491 129.992C110.449 129.899 110.418 129.8 110.401 129.697L110.348 129.373L110.294 129.048C110.278 128.952 110.274 128.854 110.281 128.758L110.306 128.427L110.33 128.095C110.331 128.086 110.33 128.077 110.329 128.07L110.299 127.746L110.268 127.421C110.267 127.41 110.264 127.396 110.261 127.382L110.18 127.056L110.1 126.73C110.061 126.573 110.066 126.412 110.108 126.26L110.2 125.932L110.283 125.636L110.273 125.345L110.26 125.018C110.258 124.979 110.256 124.939 110.254 124.901L110.233 124.573L110.213 124.247C110.208 124.175 110.208 124.101 110.213 124.028L110.234 123.703L110.254 123.402L110.19 123.087L110.12 122.755C110.1 122.659 110.091 122.559 110.096 122.458L110.125 121.808L110.142 121.655C110.151 121.606 110.162 121.556 110.177 121.508L110.277 121.187L110.378 120.864C110.382 120.852 110.384 120.84 110.386 120.83L110.394 120.775C110.386 120.785 110.38 120.797 110.372 120.808L109.98 121.335C109.935 121.395 109.887 121.451 109.835 121.504L109.604 121.74L109.373 121.974C109.372 121.975 109.372 121.976 109.372 121.977L109.374 121.975L109.199 122.25L109.024 122.526C108.99 122.578 108.954 122.63 108.916 122.68L108.718 122.942L108.528 123.191L108.404 123.488L108.275 123.801C108.218 123.937 108.131 124.058 108.017 124.155L107.763 124.372L107.522 124.577L107.345 124.833L107.157 125.104C107.119 125.159 107.077 125.213 107.033 125.264L106.606 125.76C106.575 125.795 106.545 125.831 106.514 125.866L106.513 125.865L106.299 126.11L106.083 126.356C106.037 126.408 105.988 126.457 105.937 126.504L105.692 126.727L105.472 126.925L105.324 127.183L105.159 127.472C105.106 127.564 105.04 127.649 104.962 127.724L104.726 127.95L104.49 128.178L104.489 128.177C104.475 128.191 104.461 128.207 104.447 128.223L104.025 128.727C103.983 128.777 103.938 128.826 103.891 128.872L103.657 129.102L103.446 129.309L103.299 129.58L103.138 129.876C103.087 129.97 103.021 130.058 102.944 130.135L102.712 130.367L102.481 130.601C102.443 130.639 102.403 130.676 102.363 130.712L102.123 130.934L101.883 131.156C101.815 131.219 101.741 131.273 101.662 131.319L101.37 131.491L101.125 131.636L100.955 131.852L100.75 132.11C100.705 132.167 100.657 132.222 100.606 132.273L100.373 132.5L100.141 132.729C100.122 132.747 100.103 132.767 100.085 132.788L99.8683 133.037L99.6524 133.286C99.606 133.34 99.5565 133.391 99.504 133.439L99.2608 133.658L99.0187 133.878C98.9517 133.939 98.8792 133.993 98.8019 134.038L98.5147 134.206L98.2657 134.352L98.0792 134.572L97.8644 134.825C97.8321 134.863 97.7996 134.901 97.7667 134.939L97.3292 135.433C97.2783 135.49 97.2229 135.543 97.1642 135.593L96.9142 135.804L96.6632 136.015C96.6049 136.064 96.5432 136.108 96.4786 136.149L96.1964 136.323L95.9493 136.476L95.7638 136.703L95.5519 136.961L95.5509 136.96C95.455 137.077 95.3355 137.167 95.2003 137.226L94.5792 137.497C94.5583 137.506 94.5389 137.517 94.5216 137.527L94.2364 137.691L94.0021 137.825L93.8292 138.046L93.6202 138.312C93.5198 138.439 93.3887 138.535 93.2384 138.595L92.9239 138.72L92.6808 138.816L92.5079 139.001L92.2804 139.244C92.187 139.344 92.0751 139.422 91.9503 139.476L91.6437 139.607L91.336 139.738C91.326 139.743 91.3175 139.748 91.3106 139.752L91.0362 139.927L90.7608 140.102C90.7603 140.102 90.7591 140.104 90.7569 140.106L90.5167 140.335L90.2765 140.566C90.2154 140.624 90.1492 140.677 90.0782 140.724L89.5294 141.085C89.4617 141.13 89.3907 141.169 89.3165 141.202L89.0167 141.334L88.7179 141.467L88.7169 141.468L88.4474 141.66L88.1778 141.852C88.0786 141.922 87.9688 141.974 87.8526 142.007L87.5304 142.098L87.2149 142.186L86.9386 142.339L86.6603 142.492L86.4103 142.716L86.1583 142.942C86.0335 143.053 85.8827 143.127 85.7179 143.157L85.3849 143.218L85.1534 143.259L84.9737 143.411L84.713 143.629C84.5981 143.725 84.4621 143.794 84.3116 143.826L83.9874 143.898L83.7315 143.952L83.5167 144.111L83.2442 144.313C83.1087 144.412 82.9502 144.472 82.7823 144.485L82.4444 144.512L82.1847 144.532L81.961 144.66L81.67 144.825C81.583 144.875 81.4901 144.914 81.3917 144.941L80.7628 145.109C80.6971 145.126 80.6298 145.14 80.5626 145.151L80.2355 145.202L79.9239 145.25L79.6388 145.375L79.338 145.505C79.2489 145.544 79.156 145.572 79.0606 145.588L78.7355 145.644L78.4112 145.7C78.378 145.706 78.3454 145.713 78.3136 145.72L77.6808 145.862C77.6185 145.877 77.5556 145.888 77.4923 145.897L77.1661 145.94L76.8829 145.978L76.6173 146.113L76.3116 146.268C76.182 146.333 76.0388 146.37 75.8888 146.371L75.5567 146.373L75.2237 146.375C75.1839 146.375 75.1442 146.374 75.1046 146.371L74.9855 146.359L74.6544 146.308L74.4151 146.272L74.1788 146.353L73.8565 146.462C73.7327 146.504 73.6004 146.523 73.4649 146.514L73.1368 146.49L72.8097 146.467C72.7317 146.461 72.6542 146.451 72.5782 146.434L72.255 146.36L72.0294 146.31L71.7892 146.381L71.4542 146.479C71.2954 146.525 71.1237 146.529 70.9542 146.481L70.6349 146.389L70.3351 146.303H70.0274L69.6935 146.302C69.5314 146.301 69.3775 146.258 69.2413 146.181L68.9435 146.011L68.714 145.88L68.464 145.862L68.1319 145.839C68.0356 145.832 67.9406 145.814 67.8478 145.784L67.5353 145.686L67.2228 145.586C67.1476 145.562 67.0745 145.532 67.004 145.497L66.7101 145.35L66.4161 145.203C66.3813 145.186 66.3465 145.169 66.3116 145.152L66.0157 145.015L65.7208 144.877C65.7017 144.868 65.6813 144.86 65.6603 144.853L65.3478 144.744L65.0353 144.637C64.9439 144.605 64.8584 144.561 64.7804 144.506L64.7052 144.447L64.2013 144.014C64.1917 144.006 64.1821 143.999 64.173 143.993L63.8966 143.819L63.6202 143.647C63.591 143.628 63.5609 143.61 63.5304 143.593L63.2433 143.431L62.9571 143.269L62.8097 143.18L62.5304 143.001L62.2521 142.821C62.1851 142.778 62.1211 142.73 62.0616 142.677L61.5694 142.237C61.4802 142.158 61.4069 142.065 61.3497 141.963L61.1837 141.668L61.0597 141.447L60.8497 141.306L60.5685 141.116C60.4006 141.003 60.2841 140.84 60.2276 140.655L60.1261 140.32L60.0314 140.013L59.8683 139.772L59.6866 139.504C59.6648 139.472 59.642 139.44 59.6192 139.408L59.4298 139.143L59.2403 138.878C59.2079 138.833 59.1766 138.786 59.1466 138.739L58.9708 138.465L58.796 138.191C58.7804 138.166 58.7633 138.142 58.7452 138.117L58.3507 137.584C58.299 137.514 58.2544 137.439 58.2169 137.36L58.0763 137.064L57.9347 136.767C57.9198 136.735 57.9042 136.704 57.8878 136.673L57.5773 136.091C57.5216 135.986 57.4846 135.875 57.4659 135.76L57.4122 135.428L57.3585 135.097L57.3605 135.102L57.3585 135.096L57.2413 134.798L57.1222 134.494C57.0808 134.389 57.0566 134.279 57.0489 134.168L57.0255 133.833L57.0021 133.497C57.0016 133.491 57.0016 133.486 57.0011 133.485L56.919 133.172L56.838 132.859C56.829 132.824 56.8192 132.789 56.8087 132.754L56.714 132.439L56.6202 132.124C56.6112 132.094 56.6008 132.064 56.5899 132.034L56.3634 131.415C56.3298 131.324 56.3069 131.229 56.296 131.132L56.2589 130.804L56.2228 130.476C56.2208 130.458 56.217 130.441 56.213 130.425L56.1368 130.106L56.0597 129.787C56.0458 129.73 56.036 129.672 56.0274 129.613L56.0011 129.645L55.7882 129.893C55.7489 129.938 55.7077 129.983 55.6651 130.026L55.4327 130.259L55.2013 130.492C55.1915 130.502 55.1828 130.513 55.1749 130.524L54.9796 130.786L54.7843 131.048C54.7691 131.068 54.7544 131.091 54.7403 131.113L54.5655 131.396L54.3907 131.679C54.3426 131.757 54.2858 131.829 54.2218 131.896L53.9942 132.132L53.7657 132.368C53.7361 132.399 53.707 132.43 53.6778 132.461L53.4532 132.697L53.2286 132.935C53.1918 132.974 53.1539 133.012 53.1153 133.049L52.879 133.278L52.6417 133.508C52.6209 133.528 52.6011 133.549 52.5821 133.57L52.3634 133.815L52.1456 134.06L52.1446 134.059C52.0669 134.146 51.9781 134.219 51.88 134.276L51.586 134.444L51.338 134.587L51.1671 134.801L50.9601 135.058L50.9093 135.127L50.7208 135.401L50.5333 135.675C50.4532 135.792 50.3496 135.888 50.2296 135.959L49.9396 136.132L49.6817 136.284L49.4933 136.504L49.2784 136.753C49.2163 136.825 49.1463 136.89 49.0694 136.945L48.8038 137.139L48.5665 137.311L48.3878 137.556L48.1886 137.827C48.082 137.973 47.938 138.077 47.7755 138.136L47.4493 138.255L47.2032 138.343L47.0382 138.521L46.8116 138.762C46.763 138.814 46.711 138.863 46.6564 138.908L46.1564 139.326C46.1236 139.354 46.0906 139.381 46.0577 139.409L45.5577 139.835C45.5232 139.864 45.4887 139.894 45.4542 139.923L45.2032 140.134L44.9532 140.346C44.909 140.383 44.8639 140.42 44.8175 140.454L44.5548 140.65L44.2921 140.846C44.2073 140.909 44.1151 140.959 44.0187 140.996L43.7042 141.118L43.5108 141.193L43.3858 141.373L43.1866 141.658C43.0817 141.809 42.9332 141.924 42.754 141.985L42.4317 142.096L42.1105 142.205C42.0981 142.209 42.0884 142.214 42.0812 142.218L41.7931 142.37L41.5587 142.494L41.3712 142.717L41.1476 142.982C41.0746 143.068 40.987 143.144 40.8858 143.206L40.3292 143.548C40.2112 143.62 40.0842 143.664 39.9571 143.684L39.6095 143.736L39.3722 143.773L39.2062 143.912L38.9513 144.126C38.8535 144.208 38.7422 144.27 38.6212 144.311L38.3067 144.415L38.0528 144.499L37.8468 144.681L37.5929 144.903C37.4696 145.012 37.3217 145.083 37.1612 145.113L36.8282 145.176L36.4962 145.238L36.1983 145.363L35.9347 145.474L35.7003 145.678L35.4396 145.905C35.3548 145.979 35.2576 146.041 35.1495 146.087L34.546 146.343C34.4417 146.387 34.3334 146.414 34.2237 146.425L33.8858 146.458L33.6036 146.485L33.3605 146.61L33.0675 146.761C32.9699 146.811 32.8664 146.846 32.7589 146.865L32.4327 146.925L32.1075 146.985C32.0968 146.986 32.0868 146.988 32.0782 146.991L31.7706 147.101L31.463 147.209C31.383 147.237 31.3012 147.258 31.2179 147.272L30.8917 147.322L30.5655 147.374C30.5554 147.376 30.5454 147.378 30.5362 147.381L30.2247 147.484L29.9122 147.586C29.7998 147.623 29.6833 147.64 29.5665 147.639L29.2335 147.634L28.8995 147.63C28.8741 147.63 28.8497 147.63 28.8263 147.632L28.5011 147.658L28.1759 147.684C28.1363 147.687 28.0969 147.691 28.0577 147.694L27.7345 147.728L27.4122 147.76C27.3981 147.761 27.3825 147.764 27.3663 147.768L27.0431 147.846L26.7198 147.923C26.6582 147.938 26.5959 147.95 26.5333 147.959L26.2062 148.009L25.88 148.059C25.7718 148.075 25.6627 148.076 25.5548 148.061L24.8985 147.967C24.883 147.965 24.8675 147.963 24.8526 147.963L24.1944 147.959C24.0608 147.958 23.9322 147.93 23.8126 147.88L23.5001 147.748L23.2335 147.635L22.9532 147.622L22.6251 147.607C22.5792 147.604 22.5328 147.602 22.4864 147.6L22.1554 147.582L21.8233 147.565C21.6953 147.558 21.5709 147.527 21.4542 147.473L20.8526 147.195C20.8423 147.191 20.8321 147.187 20.8224 147.185L20.5069 147.096L20.1925 147.007C20.1399 146.992 20.0872 146.975 20.0353 146.958L19.7237 146.855L19.4112 146.751C19.3027 146.715 19.2017 146.663 19.1105 146.596L18.8419 146.399L18.6173 146.233L18.3468 146.162L18.0206 146.075C17.8902 146.041 17.7679 145.979 17.6603 145.894L17.4005 145.688L17.1407 145.481C17.1337 145.475 17.1261 145.47 17.1183 145.466L16.8273 145.304L16.5372 145.143C16.4402 145.089 16.3523 145.021 16.2755 144.941L16.046 144.701L15.8165 144.461C15.8041 144.448 15.7909 144.436 15.7774 144.425L15.5216 144.218L15.2657 144.01C15.1495 143.915 15.0609 143.798 15.0011 143.668L14.8565 143.356L14.7442 143.112L14.5538 142.955L14.2999 142.744C14.2548 142.707 14.21 142.668 14.1671 142.628L13.9239 142.401L13.6808 142.172C13.5882 142.085 13.513 141.982 13.4581 141.867L13.3146 141.569L13.172 141.269C13.1451 141.212 13.1201 141.155 13.0978 141.097L12.9796 140.788L12.8692 140.503L12.6856 140.26L12.4855 139.997C12.4172 139.907 12.3639 139.807 12.3263 139.699L12.2179 139.39L12.1095 139.081H12.1085L11.9396 138.803L11.7687 138.521C11.7408 138.475 11.7138 138.428 11.6876 138.381L11.3634 137.799C11.3071 137.698 11.2675 137.588 11.2462 137.473L11.1856 137.149L11.1271 136.831L10.9972 136.53L10.8653 136.226C10.8345 136.154 10.8091 136.08 10.7892 136.005L10.6212 135.37C10.5901 135.252 10.5807 135.133 10.5899 135.016L10.6173 134.675L10.6427 134.349L10.586 134.05L10.5265 133.73C10.521 133.701 10.5144 133.671 10.5069 133.642L10.3429 133.007C10.3312 132.962 10.3191 132.916 10.3077 132.87L10.2276 132.548L10.1485 132.227C10.124 132.127 10.1122 132.025 10.1144 131.922L10.1212 131.593L10.128 131.265C10.1294 131.197 10.1344 131.13 10.1427 131.063L10.1837 130.732L10.2208 130.431L10.1681 130.142L10.1095 129.819C10.0965 129.749 10.0881 129.677 10.0841 129.605L10.0655 129.276L10.047 128.947C10.0428 128.872 10.0435 128.796 10.0499 128.721L10.0782 128.396L10.1056 128.081L10.0587 127.756L10.0108 127.425C9.99109 127.287 10.0011 127.148 10.0401 127.014L10.2276 126.373C10.2298 126.366 10.2309 126.359 10.2315 126.354L10.2667 126.027L10.2989 125.737L10.2364 125.439L10.1661 125.107C10.143 124.996 10.1369 124.881 10.1495 124.766L10.1856 124.438L10.2218 124.11C10.2293 124.042 10.2401 123.974 10.255 123.907L10.3253 123.588L10.3966 123.268C10.407 123.221 10.4177 123.174 10.4288 123.127L10.505 122.807L10.5724 122.523L10.547 122.225L10.5177 121.889C10.5027 121.713 10.54 121.542 10.6212 121.391L10.7853 121.087L10.9171 120.841L10.9405 120.581L10.9689 120.254L10.9874 120.118C10.9963 120.073 11.0079 120.029 11.0216 119.985L11.1192 119.672L11.214 119.365L11.2384 119.043L11.2618 118.713L11.2794 118.576C11.2876 118.531 11.2985 118.487 11.3116 118.443L11.4044 118.129L11.4972 117.817C11.504 117.793 11.5099 117.77 11.5148 117.745L11.5792 117.422L11.6437 117.1L11.6817 116.957C11.697 116.911 11.7146 116.865 11.7355 116.82L11.8761 116.523L11.9855 116.289L11.9894 116.023L11.9942 115.684L12.005 115.561C12.0233 115.44 12.0662 115.323 12.1319 115.218L12.3106 114.931L12.4405 114.721L12.4601 114.478L12.4864 114.144C12.4919 114.074 12.5015 114.004 12.5148 113.935L12.5773 113.61L12.6398 113.283C12.6612 113.172 12.6996 113.065 12.754 112.966L13.0724 112.386C13.0882 112.357 13.1032 112.328 13.1173 112.298L13.2589 112L13.4015 111.702C13.4051 111.695 13.4082 111.687 13.4103 111.68L13.4991 111.365L13.589 111.05C13.6005 111.009 13.6129 110.969 13.6241 110.928L13.798 110.293C13.8183 110.219 13.8432 110.146 13.8741 110.075L14.0069 109.775L14.1388 109.474C14.1604 109.424 14.1835 109.376 14.2071 109.327L14.3507 109.034L14.4942 108.74C14.4965 108.736 14.4992 108.73 14.5011 108.724L14.6827 108.087L14.7442 107.922C14.7695 107.869 14.7993 107.818 14.8331 107.77L15.0245 107.497L15.1837 107.268L15.2521 106.997L15.3321 106.674C15.3654 106.541 15.4261 106.418 15.5089 106.311L15.714 106.045L15.8819 105.827L15.9513 105.569L16.0372 105.249L16.0655 105.159C16.098 105.071 16.142 104.988 16.1974 104.912L16.3937 104.644L16.589 104.374C16.6024 104.356 16.6144 104.337 16.6251 104.319L16.7892 104.035L16.9356 103.781L17.0011 103.484L17.0743 103.153C17.1075 103.003 17.1763 102.864 17.2774 102.746L17.4972 102.491L17.7159 102.236L17.7198 102.233L17.879 101.948L18.0382 101.666L18.0392 101.664L18.1388 101.347L18.2384 101.028L18.2745 100.932C18.3155 100.837 18.3707 100.75 18.4396 100.672L18.6622 100.422L18.8429 100.217L18.9278 99.965L19.0353 99.6496L19.0724 99.5558C19.1136 99.4655 19.1679 99.3814 19.2345 99.3068L19.4562 99.0587L19.6749 98.8136L19.8302 98.5333L19.9894 98.2462C20.0289 98.1748 20.0741 98.1068 20.1251 98.0431L20.3312 97.7863L20.5362 97.5304C20.5433 97.5215 20.5492 97.5119 20.5548 97.5021L20.8829 96.9337C20.9037 96.8977 20.9241 96.8609 20.9444 96.8244L21.1046 96.5373L21.2657 96.2492C21.3085 96.1725 21.3583 96.1002 21.4151 96.0333L21.628 95.7824L21.8146 95.5607L21.9249 95.2873L22.0489 94.9767C22.1067 94.8323 22.1985 94.7078 22.3155 94.6095L22.5753 94.3908L22.8097 94.1935L22.964 93.9484L23.1378 93.671C23.1699 93.6198 23.2036 93.5694 23.2394 93.5206L23.4317 93.258L23.6251 92.9953C23.6602 92.9474 23.6972 92.9001 23.7355 92.8546L23.9464 92.6037L24.1583 92.3527C24.177 92.3305 24.1943 92.3074 24.211 92.2843L24.4034 92.0206L24.5948 91.757C24.6306 91.7077 24.6678 91.6589 24.7071 91.6124L24.919 91.3634L25.13 91.1134C25.1622 91.0754 25.1945 91.0374 25.2276 91.0001L25.4454 90.756L25.6153 90.5636L25.7032 90.2931L25.8116 89.9601L25.8565 89.8468C25.9088 89.737 25.9835 89.6361 26.0812 89.5519L26.3331 89.3341L26.5851 89.1173C26.5873 89.1154 26.5891 89.1135 26.5899 89.1124L26.7921 88.8546L26.9942 88.5958C27.0197 88.5634 27.0455 88.531 27.0704 88.4982L27.2687 88.2374L27.4669 87.9757C27.52 87.9059 27.5803 87.8423 27.6456 87.7843L28.1398 87.3449C28.1529 87.3332 28.1651 87.3211 28.1759 87.3087L28.6056 86.8165C28.6439 86.7727 28.6837 86.73 28.7247 86.6886L28.9562 86.4552L29.1866 86.2228C29.215 86.1942 29.2438 86.165 29.2716 86.1359L29.7228 85.6613C29.7788 85.6025 29.8396 85.5488 29.9044 85.5001L30.1681 85.3029L30.4024 85.1261L30.5733 84.883L30.7648 84.6105C30.799 84.5617 30.835 84.5132 30.8722 84.4669L31.0782 84.2111L31.2853 83.9542L31.3858 83.8439C31.4218 83.8092 31.46 83.7762 31.5001 83.7462L31.7648 83.549L32.0294 83.3507C32.0438 83.34 32.0571 83.3284 32.0694 83.3165L32.3058 83.089L32.5411 82.8615C32.6143 82.791 32.6958 82.7309 32.7833 82.6818L33.0753 82.5187L33.3605 82.3566L33.5948 82.1427L33.836 81.921C33.8507 81.9076 33.8648 81.8933 33.878 81.8781L34.0939 81.629L34.3106 81.381C34.3564 81.3284 34.4048 81.2777 34.4562 81.2306L34.6983 81.008L34.9405 80.7863C34.9978 80.7337 35.0596 80.6852 35.1241 80.6417L35.3966 80.4591L35.669 80.2755C35.6915 80.2605 35.7136 80.2443 35.7345 80.2277L35.9894 80.0236L36.2452 79.8205C36.2826 79.7907 36.3206 79.7609 36.3585 79.7316L36.6183 79.5304L36.8771 79.3302C36.9155 79.3005 36.9545 79.2712 36.9933 79.2423L37.254 79.047L37.5157 78.8527C37.5598 78.8198 37.6047 78.7878 37.6505 78.757L37.9239 78.5734L38.1964 78.3898C38.2418 78.3592 38.2885 78.3293 38.3351 78.3009L38.6134 78.132L38.8917 77.9621C38.9353 77.9355 38.9799 77.9093 39.0245 77.8839L39.3106 77.7218L39.5626 77.5773L39.7638 77.3546L39.9903 77.1037L40.087 77.007C40.1211 76.9763 40.1569 76.9471 40.1944 76.9201L40.462 76.7277L40.7286 76.5343C40.7886 76.491 40.8518 76.4521 40.9171 76.4171L41.4952 76.1066C41.5902 76.0557 41.6903 76.0197 41.7921 75.9972L42.1271 75.923L42.38 75.8673L42.5724 75.714L42.8312 75.506L42.9034 75.4523C42.9786 75.4018 43.0602 75.3608 43.1466 75.3312L43.4591 75.2248L43.7345 75.129L43.9689 74.9513L44.2335 74.7492C44.3089 74.6916 44.3911 74.6429 44.4786 74.6037L45.0743 74.3361C45.1209 74.3152 45.1687 74.2951 45.2159 74.2755L45.5187 74.1496L45.8214 74.0246C45.8272 74.0222 45.8335 74.0189 45.8399 74.0148L46.1192 73.8371L46.3995 73.6593L46.4776 73.6144C46.5573 73.5729 46.6417 73.5416 46.7296 73.5216L47.0538 73.4484L47.3507 73.381L47.6163 73.2326L47.9054 73.0705C47.9778 73.0299 48.0543 72.9954 48.1329 72.9679L48.4425 72.8595L48.753 72.7511C48.7991 72.735 48.8454 72.7195 48.8917 72.7042L49.2042 72.6017L49.5167 72.4982C49.5672 72.4816 49.618 72.4659 49.669 72.4513L49.9845 72.3615L50.2999 72.2706C50.4181 72.2368 50.5387 72.2254 50.6564 72.2326L50.9991 72.254L51.2608 72.2697L51.4884 72.1749L51.7931 72.048C51.8899 72.0077 51.9915 71.9816 52.0958 71.9689L52.423 71.9289L52.7355 71.8908L53.0372 71.7755L53.3507 71.6564L53.4689 71.6193C53.5491 71.6006 53.6308 71.5933 53.712 71.5968L53.8331 71.6105L54.17 71.6701L54.4356 71.7169L54.6837 71.6525L55.005 71.5695L55.1681 71.5392C55.2228 71.5334 55.2785 71.5318 55.3341 71.5343L55.6612 71.5499L55.9884 71.5646C56.0302 71.5665 56.0725 71.5681 56.1144 71.5695L56.4415 71.5802L56.7696 71.591C56.8251 71.5928 56.8805 71.5962 56.9356 71.6007L57.2608 71.6271L57.5851 71.6535C57.5934 71.6541 57.6033 71.6543 57.6144 71.6535L57.9464 71.6271L58.2794 71.6007C58.3688 71.5936 58.4585 71.5954 58.548 71.6066L58.8761 71.6476L59.2032 71.6886C59.2583 71.6955 59.3125 71.706 59.3653 71.7208L59.5196 71.7775L59.8253 71.9142L60.1319 72.0519C60.1657 72.067 60.1995 72.0807 60.2325 72.0939L60.5362 72.216L60.8409 72.338C60.8524 72.3426 60.8638 72.3461 60.8751 72.3488L61.1915 72.424L61.5089 72.4992C61.5467 72.5081 61.5852 72.5164 61.6241 72.5246L62.2726 72.6613C62.3244 72.6722 62.3752 72.6872 62.4249 72.7052L62.5714 72.7697L62.8614 72.923L63.1515 73.0773C63.1989 73.1024 63.2459 73.1284 63.2921 73.1554L63.8565 73.4855C63.9001 73.511 63.9435 73.5379 63.9864 73.5646L64.2648 73.7374L64.5431 73.9093C64.5973 73.943 64.6502 73.9794 64.7013 74.0177L65.2247 74.4103C65.2295 74.4139 65.2355 74.418 65.2433 74.422L65.8409 74.7267C65.8862 74.7498 65.9298 74.7761 65.9718 74.8048L66.0929 74.8996L66.338 75.1203L66.5841 75.341C66.654 75.4038 66.7135 75.4751 66.7628 75.5519L66.8087 75.631L66.9679 75.9328L67.1026 76.1896L67.3097 76.3712L67.5558 76.588C67.6221 76.6464 67.6829 76.711 67.7364 76.7814L68.1329 77.3029C68.1673 77.3481 68.1998 77.3946 68.2315 77.4415L68.4142 77.7121L68.5968 77.9816C68.6162 78.0104 68.6364 78.0392 68.6573 78.0675L68.8536 78.3312L69.0489 78.5958C69.1059 78.6728 69.1508 78.7562 69.1837 78.8439L69.213 78.9328L69.3019 79.257L69.3712 79.5089L69.5382 79.7072L69.753 79.963C69.7857 80.0019 69.8164 80.0433 69.8439 80.0861L69.9181 80.2199L70.1974 80.8156C70.2194 80.8624 70.2385 80.9103 70.254 80.9591L70.2911 81.1085L70.3487 81.4367L70.3985 81.7228L70.5392 81.9767L70.6993 82.2667C70.7621 82.3803 70.8018 82.5037 70.8175 82.632L70.8585 82.963L70.8985 83.2931C70.8993 83.2992 70.9005 83.3036 70.9015 83.3068L70.9981 83.6173L71.0958 83.9269C71.1131 83.9822 71.1288 84.0384 71.1427 84.0949L71.2989 84.7316C71.3169 84.8047 71.3304 84.8793 71.338 84.9542L71.3712 85.2794L71.3858 85.4357L71.4337 85.4015L71.5685 85.1789L71.7374 84.8966L71.8243 84.7716C71.8559 84.7318 71.8902 84.6939 71.9269 84.6583L72.1632 84.4298L72.3702 84.2287L72.5108 83.964L72.6661 83.6681C72.7043 83.5954 72.7486 83.5258 72.7989 83.4601L73.1974 82.9406C73.257 82.8629 73.3259 82.7933 73.4015 82.7326L73.6603 82.5246L73.9044 82.3283L74.0841 82.0802L74.2765 81.8126C74.3237 81.7472 74.3763 81.6859 74.4337 81.629L74.6661 81.3986L74.8956 81.1701L75.0704 80.8976L75.2481 80.6203C75.2964 80.545 75.3526 80.4753 75.4151 80.4113L75.8741 79.9406C75.9008 79.9133 75.9267 79.8854 75.9522 79.8576L76.1739 79.6173L76.3946 79.3771C76.395 79.3768 76.3959 79.3762 76.3966 79.3751L76.5685 79.089L76.7413 78.8029L76.797 78.7189C76.8572 78.6387 76.9298 78.5688 77.0118 78.5099L77.2833 78.3146L77.5216 78.1427L77.6876 77.9093L77.879 77.6398L77.9396 77.5626C78.003 77.4896 78.0762 77.4261 78.1573 77.3742L78.4396 77.1935L78.714 77.0177L78.9386 76.7873L79.1661 76.5529C79.2081 76.5097 79.2521 76.4679 79.297 76.4279L79.7833 75.9943C79.8106 75.9699 79.8376 75.9447 79.8644 75.9191L80.339 75.466C80.3422 75.4628 80.3458 75.4586 80.3497 75.4533L80.545 75.1828L80.7413 74.9132C80.7815 74.8578 80.8243 74.8039 80.8702 74.7531L81.0909 74.5099L81.3106 74.2667L81.4308 74.1525C81.4734 74.1177 81.5184 74.0859 81.5655 74.0578L81.8536 73.8859L82.1173 73.7277L82.3233 73.507L82.547 73.2658L82.6661 73.1544C82.7084 73.1205 82.754 73.0902 82.8009 73.0626L83.3731 72.7267C83.3982 72.712 83.4221 72.6959 83.4454 72.6798L83.7159 72.4923L83.9669 72.3185L84.1642 72.0812L84.3751 71.8253C84.4319 71.7566 84.4958 71.6931 84.5655 71.6369L84.8214 71.4308L85.0782 71.2238C85.1073 71.2004 85.1361 71.1767 85.1642 71.1525L85.4132 70.9376L85.6612 70.7238C85.7261 70.6679 85.7962 70.6182 85.8702 70.5753L86.4386 70.2453C86.4821 70.22 86.5261 70.1953 86.5704 70.171L86.8605 70.0128L87.1505 69.8537C87.179 69.8381 87.207 69.8224 87.2335 69.8058L87.7843 69.4601H87.7853L88.2657 68.9992C88.3338 68.934 88.4095 68.8769 88.4913 68.8283L88.7726 68.6613L89.0538 68.4933C89.0989 68.4665 89.1445 68.4403 89.1905 68.4152L89.4776 68.2589L89.7647 68.1017C89.7877 68.0891 89.8101 68.0752 89.8321 68.0607L90.1056 67.88L90.38 67.6994C90.3898 67.6929 90.3997 67.6855 90.4093 67.6769L90.6554 67.4552L90.9024 67.2335L90.9718 67.1759C91.0437 67.1217 91.1225 67.0773 91.2062 67.0431L91.5147 66.9171L91.8224 66.7912C91.8328 66.7869 91.842 66.7822 91.8497 66.7775L92.128 66.6085L92.4073 66.4386C92.4714 66.3996 92.5379 66.3648 92.6065 66.3351L93.2101 66.0734C93.2724 66.0464 93.3367 66.0234 93.4015 66.0031L93.7169 65.9035L94.0323 65.8048C94.042 65.8018 94.0502 65.7979 94.0577 65.7941L94.3487 65.6486L94.6397 65.5021C94.6568 65.4935 94.6743 65.4831 94.6915 65.4718L94.9679 65.2912L95.2452 65.1095C95.2808 65.0862 95.3162 65.062 95.3517 65.0382L95.6271 64.8537L95.9024 64.6681C96.0235 64.5868 96.1589 64.5362 96.2999 64.5158L96.6358 64.4669L96.9708 64.4191C96.9896 64.4164 97.0062 64.4124 97.0206 64.4083L97.3341 64.3205L97.5997 64.2453L97.839 64.0734L98.1163 63.8732L98.1915 63.8234C98.268 63.7774 98.3514 63.7406 98.4405 63.715L99.0675 63.5353C99.1274 63.5181 99.1879 63.5027 99.2491 63.4904L99.5733 63.4259L99.8985 63.3605L100.502 63.1027C100.638 63.0448 100.781 63.0213 100.921 63.0275L101.264 63.0431L101.525 63.0539L101.753 62.9562L102.057 62.8263C102.129 62.7951 102.205 62.7697 102.281 62.7501L102.601 62.6681L102.921 62.5871L103.067 62.5587C103.117 62.5525 103.167 62.5499 103.217 62.5499H103.871L104.193 62.4816L104.516 62.4123C104.577 62.3993 104.638 62.3891 104.699 62.381L105.024 62.338L105.348 62.296L105.482 62.2853L105.616 62.2892L105.945 62.3136L106.275 62.339C106.324 62.3428 106.374 62.3469 106.423 62.3517L106.748 62.3839L107.073 62.4152C107.079 62.4157 107.085 62.4166 107.091 62.4162L107.743 62.3634C107.778 62.3606 107.814 62.3571 107.85 62.3527L108.182 62.3126L108.513 62.2716L108.621 62.2648C108.693 62.2641 108.765 62.2715 108.836 62.2873L108.941 62.3165L109.256 62.4259L109.549 62.5275L109.857 62.546L110.186 62.5665C110.288 62.5728 110.39 62.592 110.487 62.6251L111.108 62.8361C111.143 62.8478 111.178 62.859 111.212 62.8693L111.525 62.9621L111.836 63.0548C111.893 63.0718 111.949 63.0916 112.005 63.1124L112.309 63.2257L112.57 63.3234L112.878 63.3312L113.225 63.34C113.378 63.3437 113.526 63.3871 113.654 63.4679L113.775 63.5617L114.03 63.7941L114.276 64.0206L114.551 64.172L114.834 64.3273L115.153 64.4249L115.474 64.5216C115.586 64.5557 115.693 64.6079 115.789 64.6779L116.322 65.0646C116.387 65.1115 116.448 65.1633 116.504 65.2199L116.736 65.4533L116.965 65.6837L117.239 65.8605L117.515 66.0392C117.558 66.0672 117.602 66.0956 117.645 66.1251L117.917 66.3136L118.191 66.5021C118.297 66.5758 118.388 66.6688 118.459 66.7765L118.643 67.0548L118.823 67.3292L119.057 67.5558L119.293 67.7833C119.352 67.8409 119.407 67.904 119.455 67.9708L119.842 68.5021C119.87 68.5404 119.898 68.5788 119.925 68.6173L120.302 69.1505C120.317 69.1717 120.334 69.1931 120.352 69.214L120.566 69.4679L120.779 69.7228C120.871 69.8316 120.936 69.957 120.973 70.0919L121.062 70.4181L121.13 70.671L121.299 70.8722L121.515 71.13C121.601 71.2336 121.666 71.3534 121.704 71.4845L121.798 71.8039L121.891 72.1222C121.907 72.179 121.923 72.2365 121.936 72.2941L122.008 72.6154L122.069 72.8927L122.226 73.1417L122.403 73.4259C122.434 73.4741 122.46 73.5247 122.483 73.5773L122.537 73.7404L122.615 74.0568L122.693 74.3742C122.694 74.3778 122.696 74.3823 122.698 74.3878L122.835 74.6915L122.973 74.9953C123.009 75.0765 123.038 75.1614 123.058 75.2492L123.129 75.5685L123.2 75.8869C123.21 75.9295 123.22 75.9727 123.23 76.0158L123.376 76.6583C123.401 76.7658 123.408 76.8752 123.4 76.9835L123.378 77.3185L123.362 77.5392L123.471 77.7462L123.63 78.0539C123.672 78.1338 123.704 78.2198 123.724 78.3107L123.74 78.4035L123.781 78.7287L123.822 79.0529C123.837 79.1667 123.832 79.2801 123.813 79.3888L123.751 79.7257L123.699 80.0089L123.752 80.2716L123.817 80.5929C123.838 80.6973 123.845 80.8033 123.836 80.9083L123.809 81.2394L123.787 81.508L123.872 81.7706L123.976 82.0929C124.024 82.2428 124.033 82.4008 124.002 82.5558L123.937 82.8869L123.88 83.1642L123.927 83.4396L123.962 83.6505L124.031 83.4572L124.077 83.3498C124.129 83.2464 124.201 83.1547 124.287 83.0773L124.54 82.8498L124.762 82.6515L124.898 82.4035L125.056 82.1144C125.072 82.0856 125.087 82.0564 125.102 82.0265L125.387 81.4289C125.413 81.374 125.442 81.3204 125.472 81.2677L125.634 80.9835L125.796 80.6984C125.838 80.6241 125.888 80.5544 125.943 80.4894L126.371 79.9874C126.375 79.9835 126.377 79.9792 126.38 79.9748L126.71 79.4044L126.824 79.2306L127.019 78.9669L127.213 78.7042H127.214C127.261 78.6408 127.313 78.5808 127.369 78.5255L127.84 78.0626C127.857 78.0454 127.874 78.0274 127.89 78.0089L128.102 77.757L128.314 77.506L128.467 77.2169L128.623 76.924L128.699 76.799C128.727 76.7592 128.758 76.7212 128.79 76.6847L129.008 76.4406L129.226 76.1974C129.232 76.1898 129.239 76.1813 129.245 76.172L129.424 75.8947L129.603 75.6183L129.66 75.5382C129.722 75.4612 129.794 75.3942 129.873 75.339L130.153 75.1437L130.333 75.0177L130.419 74.8156L130.551 74.5021L130.589 74.421C130.631 74.3411 130.683 74.2658 130.746 74.1974L131.19 73.7169C131.197 73.7084 131.206 73.6983 131.213 73.6876L131.584 73.1408C131.624 73.0818 131.668 73.0256 131.715 72.9718L131.93 72.7248L132.146 72.4787L132.273 72.3439L132.506 72.1154L132.739 71.8859C132.763 71.8628 132.786 71.8391 132.809 71.8146L133.031 71.5724L133.253 71.3302H133.254C133.266 71.3166 133.278 71.3016 133.289 71.2863L133.482 71.0187L133.675 70.7511L133.735 70.6749C133.8 70.6016 133.874 70.5389 133.956 70.4874L134.242 70.3068L134.479 70.1574L134.638 69.9396L134.831 69.672C134.882 69.6023 134.939 69.5377 135.002 69.4787L135.241 69.2531L135.481 69.0285C135.519 68.9927 135.558 68.9574 135.597 68.923L135.843 68.7072L136.059 68.5167L136.209 68.2599L136.379 67.9689C136.441 67.8627 136.521 67.7677 136.617 67.6886L136.873 67.4796L137.129 67.2697C137.176 67.2309 137.226 67.1945 137.276 67.1593L137.547 66.9689L137.818 66.7785C137.822 66.776 137.824 66.7739 137.825 66.7726L138.052 66.5392L138.277 66.3058C138.299 66.2838 138.32 66.2607 138.341 66.2365L138.556 65.9855L138.771 65.7335C138.803 65.6951 138.837 65.6567 138.87 65.6193L139.091 65.3751L139.311 65.131L139.43 65.0167C139.472 64.9819 139.517 64.9503 139.565 64.922L139.85 64.7511L140.134 64.5802C140.136 64.5789 140.138 64.5782 140.139 64.5773L140.382 64.3566L140.615 64.1447L140.8 63.8722L140.989 63.591L141.061 63.4982C141.138 63.4103 141.231 63.3372 141.337 63.2833L141.636 63.132L141.936 62.9806C141.94 62.9784 141.943 62.976 141.944 62.9748L142.203 62.7746L142.463 62.5734C142.465 62.5719 142.467 62.5695 142.47 62.5665L142.689 62.3175L142.908 62.0675C142.968 62.0002 143.034 61.9392 143.107 61.8849L143.367 61.6896L143.629 61.4943C143.663 61.4685 143.698 61.4423 143.733 61.4162L143.993 61.2179L144.255 61.0197C144.276 61.004 144.296 60.9875 144.316 60.9699L144.561 60.7492L144.805 60.5294L144.893 60.4562C144.923 60.4329 144.953 60.4099 144.984 60.3888H144.985L145.256 60.2081L145.527 60.0265C145.579 59.9918 145.633 59.9593 145.688 59.9289L145.976 59.7677L146.265 59.6076L146.292 59.589L146.551 59.3869L146.81 59.1857C146.855 59.1507 146.901 59.1165 146.947 59.0841L147.215 58.8996L147.482 58.714C147.531 58.6796 147.583 58.6471 147.635 58.6164L147.918 58.4494L148.176 58.297L148.386 58.0705L148.614 57.8224L148.704 57.7374C148.799 57.6591 148.909 57.601 149.028 57.5665L149.354 57.4728L149.55 57.4152L149.686 57.2501L149.905 56.9826L149.976 56.9054C150.05 56.8324 150.136 56.7702 150.234 56.7228L150.53 56.5792L150.819 56.4396L151.07 56.2384L151.327 56.0324L151.399 55.9796C151.473 55.9298 151.552 55.8902 151.636 55.8605L151.951 55.7482L152.258 55.6388L152.528 55.466L152.804 55.2882C152.883 55.2374 152.967 55.1962 153.055 55.1642L153.364 55.0519L153.675 54.9386C153.678 54.9373 153.682 54.9356 153.685 54.9337L154.251 54.5978C154.293 54.573 154.335 54.5485 154.377 54.5246L154.66 54.3634L154.943 54.2013C155.01 54.1635 155.079 54.1305 155.15 54.1027L155.456 53.9826L155.746 53.8683L156.006 53.6808L156.276 53.4835C156.405 53.3902 156.553 53.3333 156.708 53.3146L157.045 53.2746L157.357 53.2365L157.632 53.1173L157.934 52.9865C157.947 52.9806 157.961 52.9738 157.974 52.966L158.257 52.7941L158.539 52.6222C158.65 52.555 158.772 52.5103 158.899 52.4894L159.228 52.4357L159.495 52.3908L159.727 52.2472L160.012 52.0685L160.096 52.0216C160.183 51.9783 160.276 51.9475 160.374 51.9308L160.697 51.8751L161.022 51.8195C161.043 51.8158 161.066 51.8118 161.087 51.8058L161.403 51.7169L161.721 51.6281C161.737 51.6235 161.753 51.6179 161.768 51.6115L162.07 51.4835L162.372 51.3546L162.517 51.3048C162.566 51.2913 162.616 51.2807 162.666 51.2736L162.993 51.2277L163.312 51.1828L163.612 51.0665L163.92 50.9464L164.014 50.9162C164.108 50.8899 164.205 50.8772 164.303 50.879L164.637 50.8859L164.913 50.8917L165.173 50.7941L165.485 50.6779L165.633 50.633C165.683 50.6215 165.734 50.6133 165.785 50.6085L166.436 50.548C166.467 50.5451 166.498 50.5421 166.529 50.5373L166.855 50.4865L167.18 50.4367C167.252 50.4256 167.325 50.4188 167.398 50.4171L167.724 50.4093L168.049 50.4025C168.096 50.4014 168.144 50.4 168.192 50.3996L168.85 50.3937C168.892 50.3933 168.934 50.3927 168.975 50.3917L169.623 50.3761C169.649 50.3755 169.675 50.3741 169.702 50.3712L170.031 50.3361L170.359 50.3009C170.43 50.2934 170.501 50.2903 170.571 50.2912L171.224 50.299Z" fill="#00A86B"/>
</g>
<defs>
<filter id="filter0_ng_1018_5" x="8.52304" y="48.8131" width="182.955" height="101.714" filterUnits="userSpaceOnUse" color-interpolation-filters="sRGB">
<feFlood flood-opacity="0" result="BackgroundImageFix"/>
<feBlend mode="normal" in="SourceGraphic" in2="BackgroundImageFix" result="shape"/>
<feTurbulence type="fractalNoise" baseFrequency="4.613304615020752 4.613304615020752" stitchTiles="stitch" numOctaves="3" result="noise" seed="694" />
<feColorMatrix in="noise" type="luminanceToAlpha" result="alphaNoise" />
<feComponentTransfer in="alphaNoise" result="coloredNoise1">
<feFuncA type="discrete" tableValues="0 0 0 0 0 0 0 0 0 0 0 1 1 1 1 1 1 1 1 1 1 1 1 1 1 1 1 1 1 1 1 1 1 1 1 1 1 1 1 0 0 0 0 0 0 0 0 0 0 0 0 0 0 0 0 0 0 0 0 0 0 0 0 0 0 0 0 0 0 0 0 0 0 0 0 0 0 0 0 0 0 0 0 0 0 0 0 0 0 0 0 0 0 0 0 0 0 0 0 0 "/>
</feComponentTransfer>
<feComposite operator="in" in2="shape" in="coloredNoise1" result="noise1Clipped" />
<feComponentTransfer in="alphaNoise" result="coloredNoise2">
<feFuncA type="discrete" tableValues="0 0 0 0 0 0 0 0 0 0 0 0 0 0 0 0 0 0 0 0 0 0 0 0 0 0 0 0 0 0 0 0 0 0 0 0 0 0 0 0 0 0 0 0 0 0 0 0 0 0 0 0 0 0 0 0 0 0 0 0 0 1 1 1 1 1 1 1 1 1 1 1 1 1 1 1 1 1 1 1 1 1 1 1 1 1 1 1 1 0 0 0 0 0 0 0 0 0 0 0 "/>
</feComponentTransfer>
<feComposite operator="in" in2="shape" in="coloredNoise2" result="noise2Clipped" />
<feFlood flood-color="rgba(0, 0, 0, 0.2)" result="color1Flood" />
<feComposite operator="in" in2="noise1Clipped" in="color1Flood" result="color1" />
<feFlood flood-color="rgba(255, 255, 255, 0.25)" result="color2Flood" />
<feComposite operator="in" in2="noise2Clipped" in="color2Flood" result="color2" />
<feMerge result="effect1_noise_1018_5">
<feMergeNode in="shape" />
<feMergeNode in="color1" />
<feMergeNode in="color2" />
</feMerge>
<feTurbulence type="fractalNoise" baseFrequency="2.0298540592193604 2.0298540592193604" numOctaves="3" seed="4193" result="displacementX" />
<feTurbulence type="fractalNoise" baseFrequency="2.0298540592193604 2.0298540592193604" numOctaves="3" seed="4194" result="displacementY" />
<feColorMatrix in="displacementX" type="matrix" values="0 0 0 1 0  0 0 0 0 0  0 0 0 0 0  0 0 0 0 1" result="displacementXRed" />
<feColorMatrix in="displacementY" type="matrix" values="0 0 0 0 0  0 0 0 1 0  0 0 0 0 0  0 0 0 0 1" />
<feComposite in="displacementXRed" operator="arithmetic" k1="0" k2="1" k3="1" k4="0"/>
<feDisplacementMap in="effect1_noise_1018_5" scale="2.9558773040771484" xChannelSelector="R" yChannelSelector="G" width="100%" height="100%" />
<feColorMatrix  type="matrix" values="0 0 0 0 0  0 0 0 0 0  0 0 0 0 0  0 0 0 1 0" />
<feComponentTransfer result="sourceDisplacedAlpha">
<feFuncA type="gamma" exponent="0.2" />
</feComponentTransfer>
<feColorMatrix in="effect1_noise_1018_5" type="matrix" values="0 0 0 0 0  0 0 0 0 0  0 0 0 0 0  0 0 0 1 0" />
<feComponentTransfer result="inputSourceAlpha">
<feFuncA type="gamma" exponent="0.2" />
</feComponentTransfer>
<feComposite in="sourceDisplacedAlpha" operator="arithmetic" k1="1" k2="0" k3="0" k4="0" result="displacementAlphasMultiplied"/>
<feComposite in="displacementAlphasMultiplied"  operator="arithmetic" k1="0" k2="0" k3="-0.5" k4="0.5" result="centeringAdjustment"/>
<feComposite in="displacementX" in2="displacementAlphasMultiplied" operator="arithmetic" k1="1" k2="0" k3="0" k4="0" />
<feComposite in="centeringAdjustment" operator="arithmetic" k1="0" k2="1" k3="1" k4="0" />
<feColorMatrix  type="matrix" values="0 0 0 1 0  0 0 0 0 0  0 0 0 0 0  0 0 0 0 1" result="displacementXFinal" />
<feComposite in="displacementY" in2="displacementAlphasMultiplied" operator="arithmetic" k1="1" k2="0" k3="0" k4="0" />
<feComposite in="centeringAdjustment" operator="arithmetic" k1="0" k2="1" k3="1" k4="0" />
<feColorMatrix  type="matrix" values="0 0 0 0 0  0 0 0 1 0  0 0 0 0 0  0 0 0 0 1" result="displacementYFinal" />
<feComposite in="displacementXFinal" in2="displacementYFinal" operator="arithmetic" k1="0" k2="1" k3="1" k4="0" />
<feComposite in2="displacementAlphasMultiplied" operator="in" result="displacementMap" />
<feFlood flood-color="rgb(127, 127, 127)" flood-opacity="1"/>
<feComposite in2="displacementAlphasMultiplied" operator="out" />
<feComposite in2="displacementMap" operator="over" result="displacementMapWithBg"/>
<feDisplacementMap in="effect1_noise_1018_5" scale="2.9558773040771484" xChannelSelector="R" yChannelSelector="G" width="100%" height="100%" result="displacedImage" />
<feColorMatrix in="effect1_noise_1018_5" type="matrix" values="1 0 0 0 0  0 1 0 0 0  0 0 1 0 0  0 0 0 127 0" result="imageOpaque" />
<feDisplacementMap in="imageOpaque" in2="displacementMapWithBg" scale="2.9558773040771484" xChannelSelector="R" yChannelSelector="G" width="100%" height="100%" result="displacedImageOpaque" />
<feColorMatrix in="displacedImage" type="matrix" values="0 0 0 1 0  0 0 0 0 0  0 0 0 0 0  0 0 0 127 0" result="displacedImageRed" />
<feColorMatrix in="effect1_noise_1018_5" type="matrix" values="0 0 0 1 0  0 0 0 0 0  0 0 0 0 0  0 0 0 127 0" />
<feComposite in="displacedImageRed"  operator="atop" result="transparencyRedMap"/>
<feColorMatrix in="transparencyRedMap" type="matrix" values="0 0 0 0 0  0 0 0 0 0  0 0 0 0 0  1 0 0 0 0" result="transparencyAlphaMap" />
<feComposite in="displacedImageOpaque" in2="imageOpaque" operator="over" />
<feComposite in2="transparencyAlphaMap" operator="in" result="effect2_texture_1018_5"/>
</filter>
</defs>
</svg>
